<svg xmlns="http://www.w3.org/2000/svg" viewBox="0 0 428.73 104.65"><defs><style>.cls-1{isolation:isolate;}.cls-2{font-size:34.69px;}.cls-10,.cls-2{fill:#231f20;font-family:Avenir-Medium, Avenir;font-weight:500;}.cls-3{letter-spacing:-0.02em;}.cls-4{fill:#6797cb;}.cls-5{fill:#5687ba;}.cls-6{opacity:0.2;mix-blend-mode:multiply;}.cls-7{fill:#263238;}.cls-8{fill:#5061a7;}.cls-9{fill:#f2f6f8;}.cls-10{font-size:37.19px;}.cls-11{letter-spacing:-0.05em;}.cls-12{stroke:#231f20;stroke-miterlimit:10;stroke-width:0.25px;letter-spacing:0em;}</style></defs><g class="cls-1"><g id="Layer_1" data-name="Layer 1"><text class="cls-2" transform="translate(104.96 57.2)">CellP<tspan class="cls-3" x="80.92" y="0">r</tspan><tspan x="93.13" y="0">ofiler</tspan></text><text x="-17.81" y="-21.74"/><rect id="Background" class="cls-4" width="97.96" height="97.96" rx="12"/><path class="cls-5" d="M105.59,45a9,9,0,0,0-2.59-.95c-3.42-.75-6.92-.87-10.38-1.28-5.36-.65-10.69-1.48-16-2.61a109.83,109.83,0,0,1-24.2-8.09,29.33,29.33,0,0,0-6.93-2.47c-2.41-.48-3.93.31-4.78,2.51A21,21,0,0,0,39.61,38a101.23,101.23,0,0,1-2.3,15.17,72.85,72.85,0,0,1-7.89,20.54,24.72,24.72,0,0,0-2.67,5.82A3.88,3.88,0,0,0,27.87,84c.13.16,35.62,35.64,35.7,35.71H108a7.75,7.75,0,0,0,7.73-7.73V55S106,45.23,105.59,45Z" transform="translate(-17.81 -21.74)"/><g id="Background-2" data-name="Background"><g class="cls-6"><path class="cls-7" d="M107.08,48.63a8.7,8.7,0,0,1-1,3.15,69.39,69.39,0,0,1-5.63,8.73,110.64,110.64,0,0,0-6.47,10c-1.62,2.9-2.83,6-4.28,8.94-2.92,6-5.94,12-8.48,18.11-1.29,3.13-2.25,6.35-3.34,9.54A14.22,14.22,0,0,1,76,111.15a5,5,0,0,1-2.69,1.75,3.33,3.33,0,0,1-2.66-.76,15.46,15.46,0,0,1-3-2.43c-6.18-6.33-13.65-11-21.38-15.45a124.17,124.17,0,0,0-14-6.72,18.47,18.47,0,0,1-3.57-1.89c-2-1.4-2.57-2.81-1.94-5.09a24.72,24.72,0,0,1,2.67-5.82A72.85,72.85,0,0,0,37.31,54.2,101.23,101.23,0,0,0,39.61,39a21,21,0,0,1,1.13-5.91c.85-2.2,2.37-3,4.78-2.51a29.33,29.33,0,0,1,6.93,2.47,109.83,109.83,0,0,0,24.2,8.09c5.28,1.13,10.61,2,16,2.61,3.46.41,7,.53,10.38,1.28a9,9,0,0,1,2.59.95A2.8,2.8,0,0,1,107.08,48.63Z" transform="translate(-17.81 -21.74)"/></g><path class="cls-8" d="M107.08,47.63a8.7,8.7,0,0,1-1,3.15,69.39,69.39,0,0,1-5.63,8.73,110.64,110.64,0,0,0-6.47,10c-1.62,2.9-2.83,6-4.28,8.94-2.92,6-5.94,12-8.48,18.11-1.29,3.13-2.25,6.35-3.34,9.54A14.22,14.22,0,0,1,76,110.15a5,5,0,0,1-2.69,1.75,3.33,3.33,0,0,1-2.66-.76,15.46,15.46,0,0,1-3-2.43c-6.18-6.33-13.65-11-21.38-15.45a124.17,124.17,0,0,0-14-6.72,18.47,18.47,0,0,1-3.57-1.89c-2-1.4-2.57-2.81-1.94-5.09a24.72,24.72,0,0,1,2.67-5.82A72.85,72.85,0,0,0,37.31,53.2,101.23,101.23,0,0,0,39.61,38a21,21,0,0,1,1.13-5.91c.85-2.2,2.37-3,4.78-2.51a29.33,29.33,0,0,1,6.93,2.47,109.83,109.83,0,0,0,24.2,8.09c5.28,1.13,10.61,2,16,2.61,3.46.41,7,.53,10.38,1.28a9,9,0,0,1,2.59.95A2.8,2.8,0,0,1,107.08,47.63Z" transform="translate(-17.81 -21.74)"/></g><path class="cls-9" d="M78.39,69.89a14.47,14.47,0,0,1-3.48,9.22,18,18,0,0,1-3.72,3.46A8.11,8.11,0,0,1,64,83.63c-4.74-1.41-7.45-4.71-8.47-9.42A13.59,13.59,0,0,1,58,62.9a12.92,12.92,0,0,1,7.13-5.12,9.28,9.28,0,0,1,8.72,2A12.68,12.68,0,0,1,78.25,68,12.06,12.06,0,0,1,78.39,69.89Z" transform="translate(-17.81 -21.74)"/><text class="cls-10" transform="translate(104.96 89.45)">Analyst <tspan class="cls-11" x="134.28" y="0">W</tspan><tspan x="168.31" y="0">eb</tspan><tspan class="cls-12" x="211.7" y="0"> </tspan></text></g></g></svg>